<svg width="580" height="330" viewBox="0 0 580 330" fill="none" xmlns="http://www.w3.org/2000/svg">
<g opacity="0.6">
<path d="M180 313C150.3 313 126 288.7 126 259V187C126 157.3 150.3 133 180 133C209.7 133 234 157.3 234 187V259C234 288.7 209.7 313 180 313ZM180 151C160.2 151 144 167.2 144 187V259C144 278.8 160.2 295 180 295C199.8 295 216 278.8 216 259V187C216 167.2 199.8 151 180 151Z" fill="#14A800"/>
<path d="M81 313C75.6 313 72 309.4 72 304V268H9C3.6 268 0 264.4 0 259C0 257.2 0.900003 255.4 0.900003 254.5L72.9 137.5C75.6 133 81 132.1 85.5 134.8C88.2 136.6 90 139.3 90 142.9V250.9H99C104.4 250.9 108 254.5 108 259.9C108 265.3 104.4 268.9 99 268.9H90V304.9C90 309.4 86.4 313 81 313ZM25.2 250H72V173.5L25.2 250Z" fill="#14A800"/>
<path d="M333 313C327.6 313 324 309.4 324 304V268H261C255.6 268 252 264.4 252 259C252 257.2 252.9 255.4 252.9 254.5L324.9 137.5C327.6 133 333 132.1 337.5 134.8C340.2 136.6 342 139.3 342 142.9V250.9H351C356.4 250.9 360 254.5 360 259.9C360 265.3 356.4 268.9 351 268.9H342V304.9C342 309.4 338.4 313 333 313ZM277.2 250H324V173.5L277.2 250Z" fill="#14A800"/>
</g>
<g opacity="0.1">
<path d="M194 313C164.3 313 140 288.7 140 259V187C140 157.3 164.3 133 194 133C223.7 133 248 157.3 248 187V259C248 288.7 223.7 313 194 313ZM194 151C174.2 151 158 167.2 158 187V259C158 278.8 174.2 295 194 295C213.8 295 230 278.8 230 259V187C230 167.2 213.8 151 194 151Z" fill="#14A800"/>
<path d="M95 313C89.6 313 86 309.4 86 304V268H23C17.6 268 14 264.4 14 259C14 257.2 14.9 255.4 14.9 254.5L86.9 137.5C89.6 133 95 132.1 99.5 134.8C102.2 136.6 104 139.3 104 142.9V250.9H113C118.4 250.9 122 254.5 122 259.9C122 265.3 118.4 268.9 113 268.9H104V304.9C104 309.4 100.4 313 95 313ZM39.2 250H86V173.5L39.2 250Z" fill="#14A800"/>
<path d="M347 313C341.6 313 338 309.4 338 304V268H275C269.6 268 266 264.4 266 259C266 257.2 266.9 255.4 266.9 254.5L338.9 137.5C341.6 133 347 132.1 351.5 134.8C354.2 136.6 356 139.3 356 142.9V250.9H365C370.4 250.9 374 254.5 374 259.9C374 265.3 370.4 268.9 365 268.9H356V304.9C356 309.4 352.4 313 347 313ZM291.2 250H338V173.5L291.2 250Z" fill="#14A800"/>
</g>
<g opacity="0.5" clip-path="url(#clip0_1_2)">
<path fill-rule="evenodd" clip-rule="evenodd" d="M341.467 11.7852C337.868 10.0056 333.071 12.0696 335.072 16.7742C337.216 21.8121 345.142 21.8743 349.619 21.7744C349.171 21.751 347.728 17.1312 347.234 16.4331C345.778 14.3738 343.68 12.8813 341.467 11.7852ZM382.934 102.109C383.842 102.884 383.008 102.182 382.934 102.109V102.109ZM338 34.5717C335.894 36.1772 335.794 39.0118 337.514 40.9304C339.563 43.2145 343.304 43.1313 346.096 42.9088C347.359 42.808 354.103 42.2694 352.505 41.1689C352.628 41.2152 352.885 41.3276 353.159 41.4804C353.307 42.0193 353.463 42.5563 353.625 43.0909C353.585 43.1141 353.551 43.1389 353.509 43.1619C353.555 43.1418 353.587 43.1201 353.627 43.0998C355.249 48.4434 357.558 53.5314 360.581 58.2915C359.45 57.8474 358.278 57.5112 357.09 57.3615C353.572 56.9178 346.17 59.6444 350.106 64.316C353.879 68.7945 359.754 63.9898 364.037 63.3272C368.192 69.1089 372.772 74.6497 377.572 80.0055C377.278 80.0973 377.02 80.2887 376.872 80.5867C374.946 79.6125 372.94 78.2188 371.157 77.8415C368.586 77.2978 363.312 76.9682 361.368 79.2636C358.978 82.0862 361.54 84.3788 364.365 84.9202C368.461 85.7053 373.822 83.7099 377.763 82.3616C378.213 82.4411 378.706 82.3096 379 81.9501C379.087 81.9216 379.174 81.8936 379.258 81.8664C384.119 87.196 389.166 92.3497 394.183 97.3903C394.129 97.3876 394.076 97.3843 394.02 97.3814C392.712 96.5256 391.308 95.8234 389.787 95.4556C386.267 94.6003 382.127 94.5961 379.271 97.1354C376.426 99.6638 375.418 104.086 378.361 106.925C384.252 112.608 392.932 99.6501 395.903 99.1092C401.001 104.178 406.391 108.914 411.866 113.554C411.244 113.365 410.607 113.226 409.948 113.164C404.579 112.652 391.978 119.215 398.566 125.672C404.308 131.3 410.953 120.469 415.581 116.681C420.74 121.006 425.927 125.301 430.968 129.764C428.219 129.036 425.561 128.928 422.614 129.817C419.564 130.737 414.642 133.034 416.57 137.14C418.531 141.316 424.441 139.416 427.52 138.09C429.198 137.367 432.565 134.926 435.52 133.898C443.565 141.472 450.534 149.815 455.809 159.642C459.102 165.778 461.602 172.333 463.361 179.071C464.484 183.371 466.696 190.594 466.253 196.192C468.365 184.988 464.547 171.532 460.435 161.517C456.654 152.308 450.995 144.224 444.367 136.947C446.031 131.959 460.03 124.764 451.661 120.129C447.217 117.678 442.665 121.745 441.693 126.051C441.026 129.011 442.043 132.729 443.122 135.601C441.037 133.383 438.869 131.236 436.636 129.161C433.549 126.292 430.388 123.507 427.197 120.756C432.456 115.83 437.432 101.748 430.382 99.4453C419.971 96.0541 424.984 115.262 425.71 118.863C425.916 118.875 426.077 118.813 426.195 118.679C426.137 119.009 426.069 119.362 425.986 119.717C419.879 114.481 413.681 109.347 407.688 103.985C408.228 103.587 409.086 102.066 409.761 101.257C411.284 99.4322 412.741 97.526 413.805 95.3913C415.487 92.0179 417.109 86.6371 412.651 84.6529C407.802 82.491 405.498 88.5768 405.464 92.2073C405.441 94.7182 406.127 97.1034 406.484 99.5645C406.596 100.332 406.166 103.792 407.215 102.304C407.165 102.852 407.158 103.25 407.183 103.532C406.107 102.564 405.039 101.586 403.978 100.601C404.027 100.477 404.063 100.341 404.072 100.184C404.129 99.1018 403.036 98.6849 402.27 99.0019C400.87 97.6752 399.484 96.3318 398.123 94.9618C395.237 92.0592 392.309 89.0737 389.402 86.0247C390.033 85.4843 389.782 84.736 390.372 84.1623C390.961 83.5899 392.121 83.2733 392.813 82.7416C394.555 81.4036 395.999 79.4542 397.044 77.5357C398.769 74.3657 400.998 67.7159 395.959 66.205C390.766 64.6452 388.13 71.0465 387.796 75.0486C387.731 75.8239 388.313 82.8099 388.759 85.3467C383.379 79.6801 378.088 73.801 373.294 67.8195C374.748 67.8061 378.869 64.8366 379.702 64.0262C381.734 62.0498 384.966 57.6826 381.402 55.3716C378.233 53.3218 374.328 56.2907 372.973 59.1761C372.75 59.6512 371.965 64.0733 371.903 66.0575C369.919 63.521 368.027 60.9695 366.266 58.4099C365.091 56.7081 363.994 54.9614 362.967 53.1775C363.215 53.0378 363.447 52.7942 363.667 52.4913C368.951 51.5969 375.689 43.3746 369.482 40.5138C366.526 39.1535 363.321 41.9615 361.873 44.2604C361.577 44.7307 361.096 47.0954 360.705 48.9605C357.752 43.0509 355.494 36.7945 353.776 30.3798C354.236 30.2659 354.626 29.9155 354.677 29.3127C357.243 27.8541 359.269 26.6395 361.06 23.8347C362.173 22.0925 364.177 18.1121 360.907 17.1451C356.653 15.887 353.98 22.3674 353.632 25.5593C353.591 25.9298 353.593 27.0074 353.607 27.995C353.459 27.9749 353.31 27.9771 353.163 28.003C352.186 24.0309 351.406 20.0077 350.786 15.9777C353.108 15.2324 353.51 3.07055 351.963 1.33884C348.507 -2.53866 346.069 3.06257 346.254 6.02293C346.471 9.5135 348.058 12.6887 349.946 15.5067C350.149 15.8051 350.091 15.7907 350.144 15.3749C350.173 15.5804 350.242 15.7321 350.344 15.8419C350.246 17.6793 350.056 19.5604 350.148 21.1863C350.409 25.8424 350.953 30.5256 351.743 35.1217C351.935 36.2395 352.155 37.3483 352.402 38.4474C350.535 36.8617 348.018 35.4528 347.034 35.0122C344.478 33.8698 340.539 32.6364 338 34.5717ZM466.553 196.207C466.435 197.831 466.141 199.318 465.592 200.544C466.004 199.148 466.319 197.697 466.553 196.207Z" fill="#E4AE5D"/>
<g opacity="0.7">
<path opacity="0.7" fill-rule="evenodd" clip-rule="evenodd" d="M411.478 121.756C421.474 121.239 433.835 127.057 434.902 137.891C435.676 145.764 435.436 153.613 436.635 161.474C437.594 167.756 439.621 173.787 442.386 179.509C445.045 185.012 450.561 189.696 451.995 195.575C452.91 199.32 452.398 204.59 451.137 208.253C449.604 212.708 450.419 212.356 453.474 216.094C459.461 223.419 464.852 230.931 468.664 239.68C474.156 252.281 477.756 267.011 475.718 280.804C475.458 282.556 475.151 288.842 472.732 289.281C470.031 289.773 471.294 286.178 471.438 285.016C472.357 277.606 473.174 271.13 472.065 263.604C467.787 234.568 446.898 215.437 433.297 190.794C432.549 189.523 430.971 186.497 429.873 184.5C428.141 181.348 426.399 175.351 424.053 173.014C419.635 168.611 423.697 177.462 424.557 179.152C425.646 181.29 426.843 183.561 427.958 185.434C433.062 194.116 438.758 203.593 444.028 212.543C421.234 217.722 405.181 190.395 399.064 172.43C394.024 157.629 387.994 123.022 411.478 121.756Z" fill="#14A800"/>
<path opacity="0.7" fill-rule="evenodd" clip-rule="evenodd" d="M545.446 94.2682C528.737 95.5902 518.01 106.585 513.016 121.964C510.325 130.251 510.016 138.765 508.521 147.282C506.271 160.095 501.43 169.806 491.969 178.935C489.039 181.762 486.88 184.665 485.345 187.77C482.298 190.871 479.645 194.38 477.696 198.67C475.207 204.149 474.503 210.722 477.377 216.184C478.15 217.653 480.077 220.6 482.075 221.94C474.595 237.826 470.482 255.226 470.946 272.603C471.226 283.093 471.739 293.587 472.338 304.063C472.5 306.877 473.418 311.522 474.798 306.804C476.061 302.489 474.477 295.714 474.331 291.206C473.618 269.245 473.008 249.276 482.074 228.758C483.025 226.607 484.033 224.474 485.083 222.358C485.144 222.322 485.201 222.279 485.259 222.237C485.299 222.268 485.336 222.301 485.376 222.331C485.443 222.212 485.534 222.07 485.642 221.911C485.943 221.602 486.206 221.21 486.456 220.773C487.26 219.662 488.17 218.356 488.175 217.642C488.175 217.636 488.172 217.627 488.172 217.622C493.784 208.486 500.212 199.854 506.778 191.391C506.729 191.452 513.9 181.715 512.791 187.1C512.257 189.695 506.982 194.636 504.852 197.385C500.139 203.5 494.605 211.248 490.006 218.74C489.387 219.095 488.513 220.836 487.88 222.133C487.531 222.79 487.206 223.452 486.885 224.029C503.181 229.398 515.856 218.584 524.5 206.006C524.51 205.991 524.52 205.975 524.529 205.961C527.16 202.485 529.854 199.034 533.22 196.287C538.836 191.702 544.851 190.893 551.472 188.637C569.53 182.485 577.207 159.148 579.645 141.832C582.396 122.297 568.94 92.342 545.446 94.2682Z" fill="#E4AE5D"/>
<path opacity="0.7" fill-rule="evenodd" clip-rule="evenodd" d="M512.441 39.563C495.291 57.3617 487.006 82.0488 480.445 105.257C473.118 131.179 468.278 157.5 468.092 184.45C467.971 202.157 467.488 219.974 468.524 237.66C468.892 243.941 469.52 250.233 470.518 256.447C470.6 256.957 472.834 270.831 474.971 267.598C476.187 265.76 472.682 253.206 472.417 251.115C470.927 239.338 470.581 227.475 470.653 215.613C470.773 196.083 470.195 176.652 472.18 157.194C472.476 154.289 472.71 151.237 473.402 148.395C474.137 145.374 473.201 146.693 475.595 145.497C477.92 144.334 480.794 144.5 483.207 143.041C492.778 137.253 497.674 122.388 501.485 112.634C505.843 101.48 508.492 89.5854 510.608 77.8473C512.161 69.223 513.272 60.6511 513.9 51.9158C514.098 49.1627 514.11 46.2837 514.653 43.5767C514.799 42.8465 515.532 41.5547 515.506 40.9081C515.449 39.5395 514.621 38.7346 514.553 37.5846C513.835 38.2288 513.13 38.8888 512.441 39.563Z" fill="#E4AE5D"/>
<path opacity="0.7" fill-rule="evenodd" clip-rule="evenodd" d="M418.93 276.703C418.93 306.137 442.859 329.999 472.376 329.999C501.894 329.999 525.823 306.137 525.823 276.703" fill="#E4AE5D"/>
<path opacity="0.7" fill-rule="evenodd" clip-rule="evenodd" d="M476.665 276.872H473.841C474.036 273.339 474.295 269.812 474.888 266.318C477.153 252.955 484.237 233.329 499.773 231.16C500.346 231.079 502.455 231.066 505.009 231.215C506.219 230.541 507.575 230.133 509.004 230.039C522.231 229.066 537.003 239.708 543.384 250.782C548.528 259.711 547.661 271.435 544.484 280.921C542.357 287.272 537.713 296.326 529.97 296.414C520.282 296.525 519.815 284.585 519.628 277.605C519.379 268.325 518.203 260.241 510.87 253.916C509.161 252.442 507.293 251.146 505.567 249.693C502.864 247.419 499.877 245.09 499.529 241.327C499.048 236.136 501.986 235.202 506.473 236.166C507.238 236.33 514.942 239.778 513.801 237.053C513.453 236.22 512.181 235.561 510.576 235.067C506.421 234.616 501.467 234.093 500.042 234.406C484.67 237.769 478.685 259.002 477.096 272.492C476.924 273.948 476.786 275.409 476.665 276.872V276.872Z" fill="#14A800"/>
</g>
</g>
<defs>
<clipPath id="clip0_1_2">
<rect width="246" height="330" fill="white" transform="translate(334)"/>
</clipPath>
</defs>
</svg>
